<svg width="43" height="38" viewBox="0 0 43 38" fill="none" xmlns="http://www.w3.org/2000/svg">
<path opacity="0.6" d="M42.3399 19.2961C42.3436 19.2607 42.3436 19.2251 42.3399 19.1897C42.3331 19.0948 42.3152 19.0011 42.2866 18.9103C42.2866 18.8771 42.2866 18.8437 42.2533 18.8105C42.2099 18.6939 42.154 18.5824 42.0866 18.4778L36.7933 10.8541H36.8599C37.2155 10.8629 37.5639 10.7532 37.85 10.5424C38.1361 10.3316 38.3437 10.0316 38.4399 9.6899C38.4978 9.46119 38.5025 9.22235 38.4539 8.99152C38.4052 8.76069 38.3043 8.544 38.159 8.35794C38.0137 8.17188 37.8277 8.0213 37.6153 7.9178C37.4029 7.8143 37.1697 7.76066 36.9333 7.76074H25.8066C25.575 7.10978 25.2013 6.51825 24.7124 6.02924C24.2235 5.54023 23.6317 5.166 22.9799 4.93343V1.64031C22.9876 1.28576 22.8772 0.938768 22.6661 0.653479C22.455 0.36819 22.1551 0.160789 21.8132 0.0637517C21.5837 0.00621985 21.3441 0.00153947 21.1125 0.0501089C20.8808 0.0986783 20.6633 0.199215 20.4764 0.344079C20.2895 0.488944 20.138 0.674308 20.0335 0.886219C19.929 1.09813 19.8743 1.33105 19.8733 1.56722V4.93343C19.2215 5.166 18.6297 5.54023 18.1408 6.02924C17.6519 6.51825 17.2782 7.10978 17.0466 7.76074H6.00659C5.65102 7.75195 5.30265 7.86159 5.01652 8.07242C4.73039 8.28325 4.52282 8.58324 4.42659 8.92493C4.37012 9.15355 4.36638 9.3919 4.41561 9.62218C4.46483 9.85245 4.56573 10.0686 4.71077 10.2543C4.85582 10.44 5.04118 10.5905 5.25293 10.6944C5.46468 10.7983 5.69731 10.8529 5.93327 10.8541H6.07324L0.779948 18.4778C0.707861 18.5807 0.649581 18.6925 0.606608 18.8105C0.60359 18.8437 0.60359 18.8771 0.606608 18.9103C0.57889 19.0017 0.558844 19.0951 0.546631 19.1897C0.54948 19.2251 0.54948 19.2607 0.546631 19.2961V19.3493C0.546631 21.5036 1.4042 23.5697 2.93075 25.093C4.45729 26.6163 6.52774 27.472 8.6866 27.472C10.8455 27.472 12.9159 26.6163 14.4425 25.093C15.969 23.5697 16.8266 21.5036 16.8266 19.3493C16.8266 19.3493 16.8266 19.3094 16.8266 19.2961C16.8302 19.2607 16.8302 19.2251 16.8266 19.1897C16.8197 19.0948 16.8019 19.0011 16.7733 18.9103C16.7733 18.8771 16.7733 18.8437 16.7733 18.8105C16.7326 18.6928 16.6766 18.5809 16.6066 18.4778L11.3132 10.8541H17.1532C17.3863 11.5045 17.7615 12.095 18.2515 12.5828C18.7416 13.0707 19.3342 13.4437 19.9866 13.6747V34.0648H16.9533C16.5986 34.0563 16.2512 34.1662 15.9661 34.3771C15.6811 34.588 15.4749 34.8878 15.38 35.229C15.3223 35.4571 15.3173 35.6954 15.3656 35.9257C15.414 36.156 15.5142 36.3724 15.6588 36.5583C15.8033 36.7442 15.9885 36.8948 16.2 36.9988C16.4116 37.1027 16.6441 37.1572 16.88 37.1581H26.0066C26.3622 37.1669 26.7105 37.0573 26.9967 36.8464C27.2828 36.6356 27.4904 36.3356 27.5866 35.9939C27.6444 35.7652 27.6492 35.5264 27.6005 35.2955C27.5518 35.0647 27.451 34.848 27.3057 34.662C27.1604 34.4759 26.9745 34.3253 26.762 34.2218C26.5496 34.1183 26.3163 34.0647 26.0799 34.0648H22.9799V13.6614C23.631 13.4296 24.2224 13.0562 24.7113 12.5684C25.2001 12.0806 25.5742 11.4905 25.8066 10.8408H31.6466L26.3533 18.4645C26.2812 18.5674 26.2229 18.6792 26.1799 18.7971C26.1769 18.8303 26.1769 18.8638 26.1799 18.897C26.1522 18.9883 26.1322 19.0817 26.12 19.1764C26.12 19.1764 26.12 19.2428 26.12 19.2828C26.12 19.3227 26.12 19.2828 26.12 19.336C26.12 21.4903 26.9775 23.5564 28.5041 25.0797C30.0306 26.603 32.1011 27.4587 34.2599 27.4587C36.4188 27.4587 38.4892 26.603 40.0158 25.0797C41.5423 23.5564 42.3999 21.4903 42.3999 19.336C42.3999 19.336 42.3999 19.2961 42.3999 19.2828L42.3399 19.2961ZM5.00659 17.7993L8.63989 12.5705L12.2666 17.7993H5.00659ZM21.8199 10.7942C21.5583 10.8598 21.2841 10.8567 21.0241 10.7851C20.7641 10.7134 20.5272 10.5757 20.3364 10.3854C20.1457 10.195 20.0076 9.95846 19.9358 9.699C19.864 9.43954 19.8608 9.16601 19.9266 8.90495C19.9953 8.64052 20.1327 8.39881 20.3251 8.20446C20.5175 8.01011 20.7579 7.87005 21.0221 7.79826C21.2862 7.72647 21.5646 7.7255 21.8292 7.79566C22.0938 7.86582 22.3351 8.00464 22.5286 8.1978C22.7222 8.39096 22.8612 8.63169 22.9315 8.8957C23.0018 9.1597 23.0009 9.43754 22.929 9.70111C22.857 9.96468 22.7166 10.2046 22.5218 10.3966C22.327 10.5885 22.0849 10.7256 21.8199 10.7942ZM34.2266 12.5705L37.8533 17.7993H30.5933L34.2266 12.5705Z" fill="url(#paint0_linear_12_345)"/>
<defs>
<linearGradient id="paint0_linear_12_345" x1="0.473298" y1="18.5777" x2="42.3399" y2="18.5777" gradientUnits="userSpaceOnUse">
<stop stop-color="#94C9FF"/>
<stop offset="1" stop-color="#0C78EC"/>
</linearGradient>
</defs>
</svg>
