<svg width="26" height="27" viewBox="0 0 26 27" fill="none" xmlns="http://www.w3.org/2000/svg">
<path opacity="0.6" fill-rule="evenodd" clip-rule="evenodd" d="M6.95312 0.793213H19.2264C20.9487 0.798488 22.599 1.48504 23.8168 2.70288C25.0347 3.92073 25.7211 5.57093 25.7264 7.29321V19.5732C25.7211 21.2954 25.0347 22.9456 23.8168 24.1635C22.599 25.3813 20.9487 26.0679 19.2264 26.0732H6.95312C5.23084 26.0679 3.58056 25.3813 2.36271 24.1635C1.14487 22.9456 0.4584 21.2954 0.453125 19.5732V7.29321C0.4584 5.57093 1.14487 3.92073 2.36271 2.70288C3.58056 1.48504 5.23084 0.798488 6.95312 0.793213ZM18.4597 7.68644C15.2464 9.71978 12.7398 12.8198 10.7865 16.2265L7.91976 13.3665C7.81056 13.2554 7.68035 13.1672 7.5367 13.107C7.39306 13.0468 7.23885 13.0157 7.08309 13.0157C6.92733 13.0157 6.77312 13.0468 6.62948 13.107C6.48583 13.1672 6.35562 13.2554 6.24642 13.3665C6.02536 13.5888 5.90129 13.8897 5.90129 14.2032C5.90129 14.5167 6.02536 14.8175 6.24642 15.0398L10.2464 19.0398C10.3777 19.1719 10.5384 19.271 10.7153 19.329C10.8923 19.3871 11.0805 19.4024 11.2645 19.3738C11.4485 19.3452 11.6231 19.2735 11.7741 19.1645C11.9251 19.0554 12.048 18.9122 12.1331 18.7465C13.9931 15.1665 16.4797 11.7598 19.7331 9.70646C19.8644 9.62373 19.9781 9.51593 20.0678 9.38924C20.1575 9.26255 20.2213 9.11954 20.2557 8.96818C20.2901 8.81682 20.2942 8.66007 20.2681 8.50708C20.2419 8.35409 20.1858 8.2079 20.1031 8.07658C20.0204 7.94526 19.9126 7.83145 19.7859 7.74178C19.6592 7.65211 19.5161 7.58831 19.3647 7.55395C19.2134 7.5196 19.0567 7.5154 18.9037 7.54158C18.7507 7.56777 18.6044 7.62373 18.4731 7.70646L18.4597 7.68644Z" fill="url(#paint0_linear_14_1587)"/>
<defs>
<linearGradient id="paint0_linear_14_1587" x1="0.453125" y1="13.4332" x2="25.7264" y2="13.4332" gradientUnits="userSpaceOnUse">
<stop stop-color="#94C9FF"/>
<stop offset="1" stop-color="#0C78EC"/>
</linearGradient>
</defs>
</svg>
