<svg width="40" height="41" viewBox="0 0 40 41" fill="none" xmlns="http://www.w3.org/2000/svg">
<g opacity="0.6">
<path d="M26.28 29.7268L23.8667 27.62C23.9067 27.1164 23.9067 26.6103 23.8667 26.1067L26.24 23.96C26.3604 23.8506 26.4433 23.7061 26.4768 23.5469C26.5103 23.3877 26.4928 23.2221 26.4267 23.0735L25.24 20.28C25.1728 20.1298 25.0617 20.0036 24.9212 19.9179C24.7808 19.8322 24.6176 19.7911 24.4533 19.8L21.2667 20.0201C20.9331 19.6453 20.5768 19.2913 20.2 18.96L20.34 15.7667C20.3476 15.6035 20.3041 15.442 20.2157 15.3046C20.1273 15.1672 19.9983 15.0608 19.8467 15.0001L17.0467 13.8601C16.8952 13.7981 16.7281 13.7853 16.5689 13.8236C16.4098 13.8619 16.2667 13.9494 16.16 14.0735L14.0467 16.4934C13.5453 16.4534 13.0414 16.4534 12.54 16.4934L10.3933 14.12C10.2845 13.9968 10.1395 13.9111 9.9791 13.8752C9.81867 13.8393 9.651 13.8549 9.50002 13.92L6.70001 15.1133C6.54977 15.1786 6.4232 15.2885 6.33736 15.428C6.25152 15.5675 6.21055 15.7299 6.22001 15.8935L6.44002 19.1C6.06356 19.4277 5.71565 19.7868 5.40002 20.1734L2.19336 20.0134C2.02887 20.0034 1.86543 20.0457 1.7265 20.1343C1.58757 20.223 1.48028 20.3534 1.42002 20.5067L0.286678 23.3201C0.224434 23.4721 0.212211 23.64 0.251766 23.7994C0.291321 23.9588 0.38061 24.1015 0.506689 24.2068L2.92669 26.3C2.88004 26.8034 2.88004 27.31 2.92669 27.8134L0.540014 29.9667C0.416488 30.0768 0.331177 30.2234 0.296423 30.3852C0.261669 30.5469 0.279266 30.7156 0.346675 30.8668L1.53334 33.6601C1.59721 33.8108 1.70692 33.9377 1.84692 34.0227C1.98692 34.1076 2.15011 34.1463 2.31335 34.1334L5.51334 33.9068C5.84168 34.2869 6.20312 34.6371 6.59336 34.9534L6.43335 38.1667C6.42686 38.3314 6.47143 38.4941 6.56093 38.6326C6.65043 38.771 6.78049 38.8783 6.93335 38.94L9.74001 40.0668C9.83315 40.1043 9.93296 40.1223 10.0333 40.12C10.1446 40.1204 10.2545 40.0967 10.3558 40.0507C10.457 40.0047 10.5471 39.9374 10.62 39.8534L12.74 37.44C13.2417 37.4732 13.745 37.4732 14.2467 37.44L16.3867 39.8267C16.5001 39.9453 16.6466 40.0271 16.807 40.0616C16.9675 40.0961 17.1345 40.0816 17.2867 40.0201L20.0867 38.8201C20.2381 38.757 20.3656 38.6474 20.4506 38.5072C20.5357 38.367 20.574 38.2035 20.56 38.0401L20.3334 34.8534C20.7106 34.522 21.0606 34.1608 21.38 33.7733L24.5934 33.9267C24.7575 33.9346 24.92 33.8915 25.0585 33.8031C25.1971 33.7148 25.3047 33.5855 25.3667 33.4333L26.4867 30.62C26.55 30.4682 26.564 30.3004 26.527 30.1402C26.4899 29.98 26.4035 29.8354 26.28 29.7268ZM13.3933 32.8467C12.2314 32.8481 11.0952 32.5047 10.1285 31.8601C9.16175 31.2155 8.4079 30.2987 7.96234 29.2256C7.51678 28.1526 7.39951 26.9714 7.62538 25.8316C7.85125 24.6919 8.41012 23.6447 9.23126 22.8227C10.0524 22.0006 11.0989 21.4406 12.2384 21.2134C13.3779 20.9863 14.5592 21.1021 15.6328 21.5464C16.7064 21.9908 17.624 22.7437 18.2697 23.7097C18.9154 24.6757 19.26 25.8115 19.26 26.9734C19.2583 28.5294 18.6398 30.0212 17.5402 31.1221C16.4405 32.223 14.9494 32.8432 13.3933 32.8467Z" fill="url(#paint0_linear_14_1855)"/>
<path d="M39.1403 9.02014L37.0003 8.2734C36.8998 7.97677 36.7796 7.68735 36.6403 7.40686L37.6336 5.36682C37.7039 5.21928 37.7268 5.05363 37.6994 4.89254C37.6719 4.73145 37.5954 4.58271 37.4803 4.46676L35.8936 2.88684C35.7798 2.77054 35.6322 2.69302 35.4718 2.66549C35.3114 2.63796 35.1464 2.66183 35.0003 2.73352L32.9536 3.72017C32.6712 3.58703 32.3819 3.46906 32.087 3.36682L31.3469 1.22685C31.2931 1.07155 31.1923 0.936809 31.0586 0.841268C30.9248 0.745727 30.7647 0.694073 30.6003 0.693481H28.3736C28.2083 0.69367 28.0472 0.744953 27.9123 0.840454C27.7774 0.935955 27.6754 1.07102 27.6203 1.22685L26.8869 3.36682C26.5906 3.46552 26.3011 3.58357 26.0203 3.72017L23.9736 2.73352C23.8251 2.66273 23.6583 2.63935 23.4961 2.66679C23.3338 2.69423 23.184 2.77114 23.067 2.88684L21.4936 4.46676C21.3774 4.58195 21.2996 4.73027 21.271 4.8914C21.2423 5.05252 21.2642 5.21862 21.3336 5.36682L22.3269 7.40686C22.187 7.68621 22.0689 7.97583 21.9736 8.2734L19.8269 9.02014C19.674 9.07473 19.5414 9.17491 19.4472 9.30725C19.3531 9.43959 19.3018 9.59762 19.3003 9.76005V11.9934C19.3 12.1579 19.3504 12.3184 19.4446 12.4532C19.5389 12.588 19.6724 12.6905 19.8269 12.7467L21.967 13.4868C22.065 13.7843 22.1853 14.074 22.3269 14.3535L21.3336 16.3868C21.2642 16.535 21.2423 16.701 21.271 16.8621C21.2996 17.0232 21.3774 17.1715 21.4936 17.2867L23.067 18.8735C23.184 18.9892 23.3338 19.0659 23.4961 19.0934C23.6583 19.1208 23.8251 19.0976 23.9736 19.0268L26.0136 18.0402C26.2937 18.1784 26.5834 18.2965 26.8803 18.3935L27.6203 20.5402C27.6765 20.6947 27.779 20.8282 27.9138 20.9225C28.0486 21.0167 28.2091 21.0672 28.3736 21.0669H30.6003C30.7636 21.0658 30.9227 21.0147 31.0562 20.9205C31.1897 20.8264 31.2911 20.6937 31.3469 20.5402L32.087 18.3935C32.3843 18.2977 32.674 18.1796 32.9536 18.0402L34.987 19.0268C35.1353 19.0986 35.3023 19.1223 35.4648 19.0948C35.6272 19.0674 35.7771 18.99 35.8936 18.8735L37.4803 17.2867C37.5954 17.1708 37.6719 17.0222 37.6994 16.8611C37.7268 16.7 37.7039 16.5344 37.6336 16.3868L36.6403 14.3535C36.7819 14.074 36.9022 13.7843 37.0003 13.4868L39.1403 12.7467C39.2949 12.6905 39.4284 12.588 39.5226 12.4532C39.6168 12.3184 39.6673 12.1579 39.667 11.9934V9.76005C39.6655 9.59762 39.6142 9.43959 39.52 9.30725C39.4258 9.17491 39.2933 9.07473 39.1403 9.02014ZM29.4803 15.3268C28.6008 15.3268 27.7411 15.066 27.0098 14.5774C26.2786 14.0888 25.7086 13.3943 25.3721 12.5818C25.0355 11.7693 24.9475 10.8752 25.1191 10.0127C25.2906 9.15009 25.7141 8.35768 26.336 7.7358C26.9579 7.11392 27.7502 6.69041 28.6128 6.51884C29.4754 6.34726 30.3694 6.43537 31.1819 6.77193C31.9945 7.10849 32.6889 7.67838 33.1776 8.40963C33.6662 9.14088 33.927 10.0007 33.927 10.8802C33.9234 12.0584 33.4538 13.1873 32.6207 14.0205C31.7875 14.8536 30.6585 15.3233 29.4803 15.3268Z" fill="url(#paint1_linear_14_1855)"/>
</g>
<defs>
<linearGradient id="paint0_linear_14_1855" x1="0.220016" y1="26.9667" x2="26.5533" y2="26.9667" gradientUnits="userSpaceOnUse">
<stop stop-color="#94C9FF"/>
<stop offset="1" stop-color="#0C78EC"/>
</linearGradient>
<linearGradient id="paint1_linear_14_1855" x1="19.3003" y1="10.8802" x2="39.667" y2="10.8802" gradientUnits="userSpaceOnUse">
<stop stop-color="#94C9FF"/>
<stop offset="1" stop-color="#0C78EC"/>
</linearGradient>
</defs>
</svg>
