<svg width="36" height="25" viewBox="0 0 36 25" fill="none" xmlns="http://www.w3.org/2000/svg">
<path opacity="0.6" fill-rule="evenodd" clip-rule="evenodd" d="M3.33325 19.7468H32.5066V2.88013C32.5057 2.62624 32.4548 2.3751 32.3569 2.14087C32.2589 1.90665 32.1158 1.69397 31.9356 1.51506C31.7555 1.33615 31.5419 1.19442 31.307 1.09807C31.0721 1.00172 30.8205 0.95266 30.5666 0.953537H5.27995C5.0255 0.951781 4.77319 1.00016 4.53752 1.09612C4.30185 1.19207 4.08743 1.33362 3.90658 1.51262C3.72572 1.69161 3.58195 1.90458 3.48356 2.13925C3.38518 2.37391 3.33412 2.62568 3.33325 2.88013V19.7468ZM0.419923 21.6801V23.6135C0.419546 23.8609 0.514015 24.0991 0.68392 24.2789C0.853826 24.4587 1.08623 24.5665 1.33325 24.5802H34.3932C34.6502 24.5802 34.8968 24.4785 35.0792 24.2974C35.2615 24.1164 35.3649 23.8705 35.3666 23.6135V21.6801H0.419923Z" fill="url(#paint0_linear_14_1566)"/>
<defs>
<linearGradient id="paint0_linear_14_1566" x1="0.38659" y1="12.7669" x2="35.3933" y2="12.7669" gradientUnits="userSpaceOnUse">
<stop stop-color="#94C9FF"/>
<stop offset="1" stop-color="#0C78EC"/>
</linearGradient>
</defs>
</svg>
