<svg width="30" height="31" viewBox="0 0 30 31" fill="none" xmlns="http://www.w3.org/2000/svg">
<path d="M22.6999 0.34668H7.3799C3.38136 0.34668 0.139893 3.58814 0.139893 7.58668V23.1933C0.139893 27.1919 3.38136 30.4333 7.3799 30.4333H22.6999C26.6984 30.4333 29.9399 27.1919 29.9399 23.1933V7.58668C29.9399 3.58814 26.6984 0.34668 22.6999 0.34668Z" fill="url(#paint0_linear_69_10)"/>
<path d="M22.7933 22.9467H19.7533V21.06C19.7533 19.7267 19.7533 18.44 19.7533 17.1333C19.72 16.0533 19.2067 15.4534 18.34 15.3734C18.1112 15.3276 17.8754 15.3299 17.6476 15.3803C17.4198 15.4307 17.2049 15.528 17.0168 15.6659C16.8286 15.8039 16.6712 15.9796 16.5547 16.1817C16.4382 16.3839 16.3651 16.608 16.34 16.84C16.2658 17.2804 16.2368 17.7271 16.2533 18.1734C16.2533 19.76 16.2533 21.3533 16.2533 22.9733H13.1733V12.9267H16.1V14.1333C16.6941 13.4264 17.5009 12.9306 18.4 12.72C19.94 12.3933 21.6133 12.92 22.2333 14.0533C22.5673 14.6252 22.7657 15.2661 22.8134 15.9267C22.8334 18.24 22.7933 20.5734 22.7933 22.9467Z" fill="white"/>
<path d="M11.0403 12.9135V22.9135H7.97363V12.9135H11.0403Z" fill="white"/>
<path d="M9.48035 11.4266C9.00473 11.4266 8.54855 11.2377 8.21224 10.9014C7.87592 10.5651 7.68701 10.1089 7.68701 9.63326C7.68701 9.15764 7.87592 8.70151 8.21224 8.36519C8.54855 8.02888 9.00473 7.83997 9.48035 7.83997C9.95597 7.83997 10.4121 8.02888 10.7484 8.36519C11.0847 8.70151 11.2737 9.15764 11.2737 9.63326C11.2737 10.1089 11.0847 10.5651 10.7484 10.9014C10.4121 11.2377 9.95597 11.4266 9.48035 11.4266Z" fill="white"/>
<defs>
<linearGradient id="paint0_linear_69_10" x1="2.18656" y1="2.54001" x2="27.8932" y2="28.24" gradientUnits="userSpaceOnUse">
<stop stop-color="#94C9FF"/>
<stop offset="0.4" stop-color="#58A5F7"/>
<stop offset="0.8" stop-color="#2185EF"/>
<stop offset="0.99" stop-color="#0C78EC"/>
</linearGradient>
</defs>
</svg>
