<svg width="67" height="1155" viewBox="0 0 67 1155" fill="none" xmlns="http://www.w3.org/2000/svg">
<path d="M34.9198 1154.45C34.5454 1154.42 34.195 1154.25 33.9452 1153.97C33.6954 1153.7 33.5665 1153.33 33.5865 1152.95V1.33333C33.5865 0.979711 33.727 0.640511 33.977 0.390462C34.2271 0.140414 34.5662 0 34.9198 0C35.2735 0 35.6126 0.140414 35.8626 0.390462C36.1127 0.640511 36.2532 0.979711 36.2532 1.33333V1152.95C36.2714 1153.33 36.1419 1153.69 35.8924 1153.97C35.643 1154.25 35.2936 1154.42 34.9198 1154.45Z" fill="url(#paint0_linear_84_16)"/>
<path d="M33.3333 134.14C51.7428 134.14 66.6667 119.216 66.6667 100.807C66.6667 82.3972 51.7428 67.4734 33.3333 67.4734C14.9238 67.4734 0 82.3972 0 100.807C0 119.216 14.9238 134.14 33.3333 134.14Z" fill="url(#paint1_linear_84_16)"/>
<path d="M29.5309 95.5531V92.0271H36.1182V111.953H32.1822V95.5531H29.5309Z" fill="white"/>
<path d="M33.3333 347.973C51.7428 347.973 66.6667 333.049 66.6667 314.64C66.6667 296.23 51.7428 281.307 33.3333 281.307C14.9238 281.307 0 296.23 0 314.64C0 333.049 14.9238 347.973 33.3333 347.973Z" fill="url(#paint2_linear_84_16)"/>
<path d="M28.5317 321.468C30.281 320.01 31.675 318.798 32.7137 317.832C33.7524 316.848 34.6179 315.828 35.3104 314.771C36.0028 313.714 36.349 312.675 36.349 311.655C36.349 310.726 36.1304 309.997 35.693 309.468C35.2557 308.94 34.5815 308.676 33.6704 308.676C32.7593 308.676 32.0577 308.985 31.5657 309.605C31.0737 310.206 30.8186 311.035 30.8004 312.092H27.083C27.1559 309.906 27.8028 308.247 29.0237 307.118C30.2628 305.988 31.8299 305.423 33.725 305.423C35.8024 305.423 37.3968 305.979 38.5084 307.09C39.6199 308.184 40.1757 309.632 40.1757 311.436C40.1757 312.858 39.793 314.215 39.0277 315.509C38.2624 316.803 37.3877 317.933 36.4037 318.898C35.4197 319.846 34.135 320.994 32.5497 322.342H40.613V325.513H27.1104V322.67L28.5317 321.468Z" fill="white"/>
<path d="M33.3333 561.807C51.7428 561.807 66.6667 546.883 66.6667 528.473C66.6667 510.064 51.7428 495.14 33.3333 495.14C14.9238 495.14 0 510.064 0 528.473C0 546.883 14.9238 561.807 33.3333 561.807Z" fill="url(#paint3_linear_84_16)"/>
<path d="M27.3837 524.275C27.4748 522.453 28.1126 521.05 29.297 520.066C30.4997 519.064 32.0759 518.562 34.0257 518.562C35.3559 518.562 36.4948 518.799 37.4424 519.273C38.3899 519.729 39.1006 520.357 39.5744 521.159C40.0664 521.943 40.3124 522.836 40.3124 523.838C40.3124 524.986 40.0117 525.961 39.4104 526.762C38.8273 527.546 38.1257 528.074 37.3057 528.348V528.457C38.3626 528.785 39.1826 529.368 39.7657 530.206C40.367 531.045 40.6677 532.12 40.6677 533.432C40.6677 534.525 40.4126 535.5 39.9024 536.356C39.4104 537.213 38.6724 537.887 37.6884 538.379C36.7226 538.853 35.5564 539.09 34.1897 539.09C32.1306 539.09 30.4541 538.57 29.1604 537.532C27.8666 536.493 27.1833 534.962 27.1104 532.94H30.8277C30.8641 533.833 31.1648 534.552 31.7297 535.099C32.3128 535.628 33.1055 535.892 34.1077 535.892C35.037 535.892 35.7477 535.637 36.2397 535.126C36.7499 534.598 37.005 533.924 37.005 533.104C37.005 532.01 36.6588 531.227 35.9664 530.753C35.2739 530.279 34.1988 530.042 32.741 530.042H31.9484V526.899H32.741C35.3286 526.899 36.6224 526.034 36.6224 524.302C36.6224 523.519 36.3855 522.908 35.9117 522.471C35.4561 522.034 34.791 521.815 33.9164 521.815C33.0599 521.815 32.3948 522.052 31.921 522.526C31.4655 522.981 31.2013 523.564 31.1284 524.275H27.3837Z" fill="white"/>
<path d="M33.3333 775.64C51.7428 775.64 66.6667 760.716 66.6667 742.307C66.6667 723.897 51.7428 708.973 33.3333 708.973C14.9238 708.973 0 723.897 0 742.307C0 760.716 14.9238 775.64 33.3333 775.64Z" fill="url(#paint4_linear_84_16)"/>
<path d="M25.8315 748.906V745.899L34.7695 733.107H39.2249V745.571H41.6302V748.906H39.2249V752.787H35.3982V748.906H25.8315ZM35.6442 737.207L30.0409 745.571H35.6442V737.207Z" fill="white"/>
<path d="M33.3333 989.473C51.7428 989.473 66.6667 974.549 66.6667 956.14C66.6667 937.73 51.7428 922.807 33.3333 922.807C14.9238 922.807 0 937.73 0 956.14C0 974.549 14.9238 989.473 33.3333 989.473Z" fill="url(#paint5_linear_84_16)"/>
<path d="M39.3889 950.001H30.5329V954.675C30.9155 954.202 31.4622 953.819 32.1729 953.527C32.8835 953.218 33.6398 953.063 34.4415 953.063C35.8993 953.063 37.0929 953.382 38.0222 954.019C38.9515 954.657 39.6258 955.477 40.0449 956.479C40.464 957.463 40.6735 958.52 40.6735 959.65C40.6735 961.746 40.0722 963.431 38.8695 964.707C37.6851 965.982 35.9904 966.62 33.7855 966.62C31.7082 966.62 30.05 966.101 28.8109 965.062C27.5718 964.023 26.8702 962.666 26.7062 960.989H30.4235C30.5875 961.718 30.952 962.301 31.5169 962.739C32.1 963.176 32.838 963.395 33.7309 963.395C34.806 963.395 35.6169 963.058 36.1635 962.383C36.7102 961.709 36.9835 960.816 36.9835 959.705C36.9835 958.575 36.7011 957.719 36.1362 957.135C35.5895 956.534 34.7787 956.233 33.7035 956.233C32.9382 956.233 32.3004 956.425 31.7902 956.807C31.28 957.19 30.9155 957.7 30.6969 958.338H27.0342V946.639H39.3889V950.001Z" fill="white"/>
<defs>
<linearGradient id="paint0_linear_84_16" x1="34.9199" y1="-0.16" x2="34.9199" y2="1154.45" gradientUnits="userSpaceOnUse">
<stop stop-color="#94C9FF"/>
<stop offset="0.13" stop-color="#8BC3FE"/>
<stop offset="0.33" stop-color="#71B4FA"/>
<stop offset="0.6" stop-color="#489CF4"/>
<stop offset="0.91" stop-color="#107AED"/>
<stop offset="0.93" stop-color="#0C78EC"/>
</linearGradient>
<linearGradient id="paint1_linear_84_16" x1="-13.8333" y1="78.7401" x2="46.5667" y2="106.993" gradientUnits="userSpaceOnUse">
<stop stop-color="white"/>
<stop offset="0.2" stop-color="#DBEDFF"/>
<stop offset="0.41" stop-color="#BCDDFF"/>
<stop offset="0.62" stop-color="#A6D2FF"/>
<stop offset="0.82" stop-color="#99CBFF"/>
<stop offset="1" stop-color="#94C9FF"/>
</linearGradient>
<linearGradient id="paint2_linear_84_16" x1="-14.8933" y1="277.573" x2="76.1933" y2="347.587" gradientUnits="userSpaceOnUse">
<stop stop-color="white"/>
<stop offset="0.08" stop-color="#E6F1FD"/>
<stop offset="0.24" stop-color="#BFDCFA"/>
<stop offset="0.4" stop-color="#9FCAF7"/>
<stop offset="0.54" stop-color="#89BEF5"/>
<stop offset="0.69" stop-color="#7CB7F4"/>
<stop offset="0.81" stop-color="#77B4F4"/>
</linearGradient>
<linearGradient id="paint3_linear_84_16" x1="-17.9467" y1="490.967" x2="69.7267" y2="555.093" gradientUnits="userSpaceOnUse">
<stop stop-color="white"/>
<stop offset="0.01" stop-color="#FCFEFF"/>
<stop offset="0.3" stop-color="#B0D3F9"/>
<stop offset="0.54" stop-color="#78B4F5"/>
<stop offset="0.72" stop-color="#56A1F2"/>
<stop offset="0.82" stop-color="#499AF1"/>
</linearGradient>
<linearGradient id="paint4_linear_84_16" x1="-21.32" y1="699.947" x2="70.1133" y2="770.813" gradientUnits="userSpaceOnUse">
<stop stop-color="white"/>
<stop offset="0.03" stop-color="#F1F6FE"/>
<stop offset="0.2" stop-color="#ACCCF9"/>
<stop offset="0.36" stop-color="#72A8F4"/>
<stop offset="0.51" stop-color="#458CF1"/>
<stop offset="0.63" stop-color="#2578EE"/>
<stop offset="0.74" stop-color="#116CED"/>
<stop offset="0.82" stop-color="#0A68EC"/>
</linearGradient>
<linearGradient id="paint5_linear_84_16" x1="-22.8733" y1="918" x2="75.7933" y2="984.96" gradientUnits="userSpaceOnUse">
<stop stop-color="white"/>
<stop offset="0.06" stop-color="#E0E5F0"/>
<stop offset="0.17" stop-color="#ACB9D6"/>
<stop offset="0.28" stop-color="#7F93BF"/>
<stop offset="0.38" stop-color="#5A75AD"/>
<stop offset="0.49" stop-color="#3E5D9F"/>
<stop offset="0.6" stop-color="#294C95"/>
<stop offset="0.71" stop-color="#1D418F"/>
<stop offset="0.82" stop-color="#193E8D"/>
</linearGradient>
</defs>
</svg>
