<svg width="67" height="67" viewBox="0 0 67 67" fill="none" xmlns="http://www.w3.org/2000/svg">
<path d="M33.3333 66.6667C51.7428 66.6667 66.6667 51.7428 66.6667 33.3333C66.6667 14.9238 51.7428 0 33.3333 0C14.9238 0 0 14.9238 0 33.3333C0 51.7428 14.9238 66.6667 33.3333 66.6667Z" fill="url(#paint0_linear_3_8)"/>
<path d="M27.9716 40.528C29.721 39.0702 31.115 37.8585 32.1536 36.8927C33.1923 35.9087 34.0579 34.8882 34.7503 33.8313C35.4428 32.7745 35.789 31.7358 35.789 30.7153C35.789 29.786 35.5703 29.0571 35.133 28.5287C34.6956 28.0002 34.0214 27.736 33.1103 27.736C32.1992 27.736 31.4976 28.0458 31.0056 28.6653C30.5136 29.2667 30.2585 30.0958 30.2403 31.1527H26.523C26.5959 28.966 27.2428 27.3078 28.4636 26.178C29.7028 25.0482 31.2699 24.4833 33.165 24.4833C35.2423 24.4833 36.8368 25.0391 37.9483 26.1507C39.0599 27.244 39.6156 28.6927 39.6156 30.4967C39.6156 31.918 39.233 33.2756 38.4676 34.5693C37.7023 35.8631 36.8276 36.9929 35.8436 37.9587C34.8596 38.9062 33.575 40.0542 31.9896 41.4027H40.053V44.5733H26.5503V41.7307L27.9716 40.528Z" fill="white"/>
<defs>
<linearGradient id="paint0_linear_3_8" x1="-93.26" y1="-6.06" x2="71.5067" y2="45.2067" gradientUnits="userSpaceOnUse">
<stop stop-color="#94C9FF"/>
<stop offset="0.27" stop-color="#92C8FF"/>
<stop offset="0.42" stop-color="#89C3FE"/>
<stop offset="0.55" stop-color="#7BBAFC"/>
<stop offset="0.66" stop-color="#67AEF9"/>
<stop offset="0.76" stop-color="#4E9FF5"/>
<stop offset="0.85" stop-color="#2E8CF1"/>
<stop offset="0.93" stop-color="#0C78EC"/>
</linearGradient>
</defs>
</svg>
