<svg width="38" height="38" viewBox="0 0 38 38" fill="none" xmlns="http://www.w3.org/2000/svg">
<path d="M22.6268 8.94728C21.6357 8.30229 20.7013 7.57456 19.8335 6.77191C18.7335 5.79399 18.3602 5.30171 16.8735 3.77163C16.2802 3.1596 15.4402 2.31474 14.3935 1.31021C14.2926 1.22878 14.1702 1.17849 14.0411 1.16549C13.912 1.15249 13.7819 1.17735 13.6668 1.23703L5.55349 5.89378C5.43138 5.97033 5.33743 6.08432 5.28575 6.21866C5.23406 6.353 5.22742 6.50044 5.26682 6.63886C5.78682 8.22216 6.30682 9.81211 6.82016 11.3954C7.43349 11.249 7.94682 11.116 8.66682 10.8765C8.97349 10.7767 9.33349 10.6703 9.64682 10.5439L8.64682 7.47043L13.6668 4.56328C14.6602 5.76073 15.5468 6.72534 16.2335 7.43051C17.1287 8.38727 18.0935 9.27669 19.1202 10.0915C19.8984 10.709 20.7206 11.2693 21.5802 11.7679C22.8692 12.5341 24.2399 13.1544 25.6668 13.6173C25.8384 12.6506 26.0609 11.6935 26.3335 10.7501C25.0318 10.2953 23.7878 9.69028 22.6268 8.94728Z" fill="#333333"/>
<path d="M11.9469 10.9164C10.8937 11.4527 9.79636 11.8979 8.6669 12.2469C7.2669 12.7059 6.6669 12.7858 4.58024 13.3113C3.75357 13.5175 2.58024 13.8169 1.20024 14.2227C1.0708 14.2647 0.957348 14.3452 0.875117 14.4534C0.792886 14.5616 0.745816 14.6924 0.740234 14.8281V24.1416C0.74575 24.2847 0.797385 24.4222 0.887466 24.5336C0.977548 24.6451 1.10127 24.7246 1.24023 24.7603L6.1469 25.7914C6.3269 25.1927 6.4669 24.6804 6.62023 23.9354C6.6869 23.616 6.76024 23.2701 6.82024 22.9242L3.65357 22.2589V16.4979C5.19357 16.2384 6.47357 15.9524 7.4269 15.7129C8.72114 15.418 9.99137 15.0266 11.2269 14.542C12.1437 14.1718 13.0346 13.7406 13.8936 13.2514C15.1931 12.4977 16.4069 11.6054 17.5136 10.5904C16.7691 9.94987 16.0592 9.27036 15.3869 8.55478C14.3369 9.47379 13.1823 10.2664 11.9469 10.9164Z" fill="#333333"/>
<path d="M8.33369 21.0947C8.27458 22.2731 8.11173 23.444 7.84702 24.594C7.54702 26.0309 7.30702 26.5897 6.72036 28.652C6.48702 29.4702 6.17369 30.6477 5.82036 32.0248C5.79143 32.1589 5.80473 32.2986 5.85843 32.4248C5.91213 32.551 6.00361 32.6576 6.12036 32.73L14.167 37.3867C14.3 37.4564 14.4527 37.4792 14.6004 37.4514C14.748 37.4236 14.8819 37.3469 14.9804 37.2337C15.5937 36.462 16.2737 35.6637 17.0404 34.8521C17.4848 34.4086 17.9292 33.9651 18.3737 33.5216C18.1804 33.322 17.9404 33.0759 17.6604 32.8031C17.3804 32.5304 17.2537 32.4106 16.9937 32.1911L16.2137 31.5259C15.762 31.9167 15.3387 32.3391 14.947 32.7898C14.6268 33.1527 14.3264 33.5324 14.047 33.9274L9.05369 31.0336C9.60036 29.57 9.98702 28.3194 10.2604 27.3814C10.655 26.1235 10.9558 24.8383 11.1604 23.5362C11.3035 22.5558 11.377 21.5666 11.3804 20.5758C11.3855 19.0766 11.2223 17.5816 10.8937 16.1187C9.96374 16.4498 9.01552 16.7275 8.05369 16.9502C8.30927 18.316 8.40324 19.7071 8.33369 21.0947Z" fill="#333333"/>
<path d="M15.3268 29.3505C16.3178 29.9931 17.2523 30.7186 18.1201 31.5192C19.2134 32.4972 19.5868 32.9894 21.0801 34.5195C21.6734 35.1315 22.5134 35.9831 23.5601 36.9876C23.6626 37.0781 23.7905 37.135 23.9264 37.1504C24.0624 37.1659 24.1998 37.1392 24.3201 37.0741L32.4001 32.4173C32.5222 32.3408 32.6162 32.2268 32.6678 32.0924C32.7195 31.9581 32.7262 31.8107 32.6868 31.6722L31.1268 26.9157C30.5201 27.0687 30.0068 27.2018 29.2868 27.4346L28.3001 27.7672C28.6334 28.8006 28.969 29.8273 29.3068 30.8473L24.2934 33.7079C23.3001 32.5105 22.4068 31.5458 21.7268 30.8407C20.8328 29.8725 19.8679 28.9719 18.8401 28.1464C18.059 27.5348 17.2371 26.9769 16.3801 26.4766C15.0793 25.7254 13.7 25.1186 12.2668 24.6672C12.096 25.6363 11.8735 26.5956 11.6001 27.541C12.908 27.999 14.1585 28.6062 15.3268 29.3505Z" fill="#333333"/>
<path d="M26.0068 27.4545C27.06 26.9182 28.1573 26.4731 29.2868 26.124C30.6868 25.6717 31.2868 25.5918 33.3734 25.0663C34.1934 24.8601 35.3734 24.5607 36.7468 24.1549C36.8762 24.1129 36.9897 24.0324 37.0719 23.9242C37.1541 23.816 37.2012 23.6852 37.2068 23.5495C37.2068 20.445 37.2068 17.3405 37.2068 14.236C37.2009 14.0921 37.1483 13.9539 37.0569 13.8423C36.9655 13.7308 36.8403 13.6518 36.7001 13.6173L31.7934 12.5862C31.6201 13.1849 31.4801 13.6972 31.3268 14.4356C31.2601 14.7549 31.1868 15.1008 31.1201 15.4534L34.2934 16.1187V21.8797C32.7534 22.1392 31.4734 22.4319 30.5201 22.6714C29.2304 22.9555 27.9644 23.338 26.7334 23.8156C25.8136 24.1945 24.9224 24.6391 24.0668 25.1461C22.7643 25.8954 21.55 26.788 20.4468 27.8071C21.1976 28.4453 21.9121 29.1249 22.5868 29.8428C23.6278 28.9141 24.7759 28.1124 26.0068 27.4545Z" fill="#333333"/>
<path d="M29.6137 17.203C29.6729 16.0225 29.8357 14.8493 30.1004 13.6972C30.4004 12.2602 30.6404 11.7014 31.227 9.63914C31.4537 8.82754 31.7737 7.67665 32.1204 6.26632C32.1407 6.13833 32.1232 6.00719 32.0699 5.88901C32.0166 5.77083 31.9299 5.67075 31.8204 5.60107L23.747 0.944321C23.619 0.87645 23.4723 0.852075 23.3291 0.874884C23.186 0.897693 23.0542 0.966443 22.9537 1.07072L19.6204 4.79612C20.0537 5.24849 20.4204 5.62103 20.9537 6.12662C21.2004 6.34616 21.4537 6.57899 21.7337 6.79187L23.907 4.39032L28.9004 7.28416C28.3537 8.74771 27.967 9.99838 27.6937 10.943C27.3022 12.1994 27.0014 13.4822 26.7937 14.7815C26.6539 15.7645 26.5804 16.7557 26.5737 17.7485C26.5755 19.2452 26.7387 20.7373 27.0604 22.1991C27.9916 21.8718 28.9396 21.5943 29.9004 21.3675C29.6404 19.9955 29.5442 18.5976 29.6137 17.203Z" fill="#333333"/>
</svg>
