<svg width="188" height="48" viewBox="0 0 188 48" fill="none" xmlns="http://www.w3.org/2000/svg">
<path d="M22.5934 9.84645C21.602 9.20053 20.6675 8.47121 19.8 7.66644C18.7067 6.68644 18.3334 6.19977 16.84 4.65977C16.2467 4.04643 15.4067 3.1998 14.36 2.19313C14.2583 2.10136 14.1308 2.04317 13.9948 2.02646C13.8588 2.00976 13.721 2.03528 13.6 2.09971L5.52004 6.76637C5.39793 6.84308 5.30399 6.95743 5.2523 7.09206C5.20061 7.22668 5.19397 7.3744 5.23337 7.51312L6.79338 12.2797C7.40004 12.1331 7.91337 11.9997 8.63337 11.7597C8.94671 11.6597 9.30004 11.553 9.62004 11.4264C9.28671 10.3997 8.95115 9.37312 8.61337 8.34645L13.6267 5.47308C14.62 6.67308 15.5134 7.63978 16.1934 8.34645C17.0886 9.30525 18.0534 10.1966 19.08 11.0131C19.8606 11.632 20.685 12.1935 21.5467 12.6931C22.8435 13.4475 24.2211 14.0535 25.6534 14.4998C25.825 13.5309 26.0475 12.5718 26.32 11.6264C25.0136 11.178 23.7632 10.5808 22.5934 9.84645Z" fill="#93C8FF"/>
<path d="M11.9134 11.8201C10.8602 12.3576 9.76284 12.8037 8.63338 13.1535C7.23338 13.6135 6.63338 13.6935 4.54671 14.2202C3.72671 14.4269 2.54671 14.7268 1.17338 15.1335C1.04395 15.1755 0.930493 15.2563 0.848262 15.3647C0.76603 15.4732 0.71896 15.6042 0.713379 15.7402C0.713379 18.8513 0.713379 21.9625 0.713379 25.0736C0.718894 25.217 0.77053 25.3546 0.860611 25.4663C0.950692 25.578 1.07441 25.6578 1.21338 25.6935L6.12671 26.7269C6.30005 26.1269 6.44005 25.6135 6.59338 24.8735C6.66005 24.5535 6.73338 24.2068 6.80004 23.8535L3.62671 23.1868V17.4069C5.16671 17.1469 6.44671 16.8601 7.40004 16.6201C8.68896 16.3324 9.95468 15.9491 11.1867 15.4735C12.103 15.1014 12.9939 14.6694 13.8534 14.1802C15.1529 13.4248 16.3667 12.5307 17.4734 11.5135C16.7241 10.8699 16.0098 10.1866 15.3334 9.4668C14.2904 10.3836 13.1424 11.1736 11.9134 11.8201Z" fill="#0C78EC"/>
<path d="M8.33362 22.0002C8.27451 23.1811 8.11166 24.3546 7.84695 25.5069C7.54695 26.9469 7.30695 27.507 6.72029 29.5736C6.48695 30.3936 6.17362 31.5735 5.82695 32.9535C5.79802 33.0879 5.81132 33.2279 5.86502 33.3544C5.91872 33.4809 6.01021 33.5877 6.12695 33.6602L14.167 38.3269C14.3 38.3967 14.4527 38.4195 14.6003 38.3917C14.7479 38.3639 14.8818 38.287 14.9803 38.1736C15.5936 37.4003 16.2803 36.6002 17.0403 35.7935C17.4803 35.3269 17.9136 34.8935 18.3736 34.4602C18.1803 34.2602 17.9469 34.0136 17.6603 33.7403C17.3736 33.467 17.2536 33.3535 16.9936 33.1269L16.2069 32.4602C15.7568 32.8536 15.3336 33.2768 14.9403 33.727C14.62 34.0929 14.3196 34.4756 14.0403 34.8736C12.3825 33.9003 10.7181 32.9313 9.04695 31.9669C9.59362 30.5069 9.98695 29.2469 10.2536 28.3069C10.6483 27.0464 10.9491 25.7584 11.1536 24.4535C11.5269 21.981 11.4387 19.4607 10.8936 17.0203C9.96253 17.3505 9.01452 17.6309 8.05362 17.8603C8.30895 19.2245 8.40293 20.614 8.33362 22.0002Z" fill="#93C8FF"/>
<path d="M15.2937 30.2932C16.286 30.9354 17.2206 31.6626 18.0871 32.4666C19.1871 33.4466 19.5604 33.9399 21.0471 35.4799C21.6404 36.0866 22.4804 36.9399 23.5271 37.9465C23.6295 38.0372 23.7574 38.0943 23.8934 38.1098C24.0294 38.1253 24.1668 38.0986 24.2871 38.0333L32.3671 33.3666C32.4892 33.2899 32.5831 33.1756 32.6348 33.0409C32.6865 32.9063 32.6931 32.7586 32.6537 32.6199C32.1337 31.0332 31.6159 29.4444 31.1004 27.8533C30.4871 28.0066 29.9737 28.14 29.2537 28.3733C28.9471 28.48 28.5871 28.5866 28.2737 28.7133L29.2737 31.7932L24.2604 34.6666C23.2671 33.4599 22.3804 32.4932 21.6937 31.7865C20.7997 30.8162 19.8349 29.9137 18.8071 29.0865C18.027 28.4722 17.205 27.9132 16.3471 27.4133C15.0481 26.6616 13.6711 26.0534 12.2404 25.5999C12.0727 26.5717 11.8501 27.5332 11.5737 28.4799C12.8804 28.9368 14.1289 29.5454 15.2937 30.2932Z" fill="#0C78EC"/>
<path d="M25.9735 28.3931C27.0252 27.8524 28.1228 27.4062 29.2535 27.0598C30.6535 26.5998 31.2535 26.5198 33.3402 25.9998C34.1668 25.7931 35.3402 25.4865 36.7202 25.0798C36.8484 25.0366 36.9604 24.9554 37.0413 24.8471C37.1223 24.7387 37.1684 24.6082 37.1735 24.4731C37.1735 21.362 37.1735 18.2508 37.1735 15.1397C37.1694 14.9952 37.1184 14.856 37.0282 14.7429C36.938 14.6299 36.8135 14.5492 36.6735 14.5131L31.7668 13.4797C31.5868 14.0797 31.4468 14.5931 31.2935 15.3331C31.2268 15.6531 31.1535 15.9998 31.0935 16.3531L34.2602 17.0198V22.7997C32.7202 23.0531 31.4402 23.3463 30.4868 23.5863C29.1993 23.871 27.9355 24.2545 26.7068 24.7332C25.7887 25.1037 24.8976 25.5381 24.0402 26.0331C22.7391 26.7862 21.5251 27.6805 20.4202 28.6998C21.1732 29.3392 21.8899 30.0203 22.5668 30.7398C23.6076 29.8282 24.7509 29.0407 25.9735 28.3931Z" fill="#93C8FF"/>
<path d="M29.58 18.1201C29.6386 16.9391 29.8015 15.7657 30.0667 14.6134C30.3667 13.1734 30.6067 12.6135 31.1933 10.5401C31.4267 9.72681 31.74 8.57344 32.0933 7.1601C32.1137 7.03184 32.0962 6.90044 32.0429 6.78201C31.9896 6.66358 31.9028 6.56326 31.7933 6.49344L23.7133 1.82677C23.5853 1.75875 23.4386 1.73425 23.2954 1.75711C23.1523 1.77996 23.0205 1.8489 22.92 1.9534L19.5867 5.6868C20.02 6.14013 20.3933 6.52013 20.92 7.02013C21.1667 7.24013 21.4267 7.47346 21.7067 7.6868L23.88 5.28006L28.8667 8.1868C28.3267 9.6468 27.9333 10.9001 27.66 11.8468C27.2676 13.1052 26.969 14.3909 26.7667 15.6935C26.4012 18.1668 26.4916 20.686 27.0333 23.1267C27.9643 22.7979 28.9123 22.5197 29.8733 22.2934C29.611 20.9188 29.5125 19.5179 29.58 18.1201Z" fill="#0C78EC"/>
<path d="M49.3761 19.3792C49.9355 18.5504 50.7022 17.877 51.676 17.359C52.6706 16.841 53.7998 16.582 55.0637 16.582C56.5349 16.582 57.8609 16.9446 59.042 17.6698C60.2437 18.395 61.1865 19.431 61.8703 20.7778C62.5747 22.1039 62.927 23.6476 62.927 25.4088C62.927 27.17 62.5747 28.7343 61.8703 30.1018C61.1865 31.4486 60.2437 32.495 59.042 33.2409C57.8609 33.9868 56.5349 34.3598 55.0637 34.3598C53.7791 34.3598 52.6499 34.1112 51.676 33.6139C50.7229 33.0959 49.9563 32.4328 49.3761 31.6248V34.0801H45.0249V11.0809H49.3761V19.3792ZM58.4825 25.4088C58.4825 24.3728 58.265 23.4818 57.8299 22.7359C57.4155 21.9692 56.856 21.3891 56.1515 20.9954C55.4678 20.6017 54.7219 20.4049 53.9138 20.4049C53.1264 20.4049 52.3805 20.6121 51.676 21.0265C50.9923 21.4202 50.4328 22.0003 49.9977 22.767C49.5833 23.5336 49.3761 24.4349 49.3761 25.4709C49.3761 26.5069 49.5833 27.4082 49.9977 28.1749C50.4328 28.9415 50.9923 29.532 51.676 29.9464C52.3805 30.3401 53.1264 30.537 53.9138 30.537C54.7219 30.537 55.4678 30.3298 56.1515 29.9154C56.856 29.501 57.4155 28.9104 57.8299 28.1438C58.265 27.3772 58.4825 26.4655 58.4825 25.4088ZM70.4401 11.0809V34.0801H66.0889V11.0809H70.4401ZM90.9939 16.8618V34.0801H86.6116V31.9045C86.0522 32.6504 85.3166 33.2409 84.405 33.676C83.514 34.0904 82.5402 34.2976 81.4834 34.2976C80.1366 34.2976 78.9452 34.0179 77.9092 33.4585C76.8732 32.8783 76.0548 32.0392 75.4539 30.941C74.8738 29.8221 74.5837 28.496 74.5837 26.9628V16.8618H78.9349V26.3412C78.9349 27.7087 79.2768 28.7654 79.9605 29.5113C80.6443 30.2365 81.5767 30.5991 82.7577 30.5991C83.9595 30.5991 84.9022 30.2365 85.586 29.5113C86.2698 28.7654 86.6116 27.7087 86.6116 26.3412V16.8618H90.9939ZM111.293 25.098C111.293 25.7196 111.252 26.279 111.169 26.7763H98.5816C98.6852 28.0195 99.1203 28.9933 99.8869 29.6978C100.654 30.4023 101.596 30.7545 102.715 30.7545C104.331 30.7545 105.481 30.0604 106.165 28.6722H110.858C110.361 30.3298 109.408 31.6973 107.999 32.7747C106.59 33.8314 104.86 34.3598 102.808 34.3598C101.151 34.3598 99.659 33.9972 98.3329 33.272C97.0276 32.5261 96.0019 31.4797 95.256 30.1329C94.5308 28.7861 94.1682 27.2321 94.1682 25.4709C94.1682 23.689 94.5308 22.1246 95.256 20.7778C95.9812 19.431 96.9965 18.395 98.3018 17.6698C99.6072 16.9446 101.109 16.582 102.808 16.582C104.445 16.582 105.906 16.9343 107.191 17.6388C108.496 18.3432 109.501 19.3482 110.205 20.6535C110.931 21.9382 111.293 23.4196 111.293 25.098ZM106.787 23.8548C106.766 22.7359 106.362 21.8449 105.575 21.1819C104.787 20.4981 103.824 20.1562 102.684 20.1562C101.607 20.1562 100.695 20.4878 99.9491 21.1508C99.2239 21.7931 98.7784 22.6944 98.6126 23.8548H106.787ZM118.82 19.3482C119.38 18.5608 120.147 17.9081 121.12 17.3901C122.115 16.8514 123.244 16.582 124.508 16.582C125.979 16.582 127.305 16.9446 128.486 17.6698C129.688 18.395 130.631 19.431 131.315 20.7778C132.019 22.1039 132.371 23.6476 132.371 25.4088C132.371 27.17 132.019 28.7343 131.315 30.1018C130.631 31.4486 129.688 32.495 128.486 33.2409C127.305 33.9868 125.979 34.3598 124.508 34.3598C123.244 34.3598 122.125 34.1008 121.151 33.5828C120.198 33.0648 119.421 32.4121 118.82 31.6248V42.2852H114.469V16.8618H118.82V19.3482ZM127.927 25.4088C127.927 24.3728 127.709 23.4818 127.274 22.7359C126.86 21.9692 126.3 21.3891 125.596 20.9954C124.912 20.6017 124.166 20.4049 123.358 20.4049C122.571 20.4049 121.825 20.6121 121.12 21.0265C120.437 21.4202 119.877 22.0003 119.442 22.767C119.028 23.5336 118.82 24.4349 118.82 25.4709C118.82 26.5069 119.028 27.4082 119.442 28.1749C119.877 28.9415 120.437 29.532 121.12 29.9464C121.825 30.3401 122.571 30.537 123.358 30.537C124.166 30.537 124.912 30.3298 125.596 29.9154C126.3 29.501 126.86 28.9104 127.274 28.1438C127.709 27.3772 127.927 26.4655 127.927 25.4088ZM139.884 19.5346C140.444 18.623 141.169 17.9081 142.06 17.3901C142.972 16.8721 144.008 16.6131 145.168 16.6131V21.1819H144.018C142.651 21.1819 141.615 21.503 140.91 22.1454C140.226 22.7877 139.884 23.9066 139.884 25.502V34.0801H135.533V16.8618H139.884V19.5346ZM150.305 14.8105C149.539 14.8105 148.897 14.5722 148.379 14.0956C147.881 13.5984 147.633 12.9871 147.633 12.2619C147.633 11.5367 147.881 10.9358 148.379 10.4593C148.897 9.962 149.539 9.71336 150.305 9.71336C151.072 9.71336 151.704 9.962 152.201 10.4593C152.719 10.9358 152.978 11.5367 152.978 12.2619C152.978 12.9871 152.719 13.5984 152.201 14.0956C151.704 14.5722 151.072 14.8105 150.305 14.8105ZM152.45 16.8618V34.0801H148.099V16.8618H152.45ZM166.291 16.6131C168.342 16.6131 169.999 17.2658 171.263 18.5712C172.527 19.8558 173.159 21.6584 173.159 23.9791V34.0801H168.808V24.5696C168.808 23.2021 168.466 22.1557 167.782 21.4305C167.099 20.6846 166.166 20.3116 164.985 20.3116C163.783 20.3116 162.83 20.6846 162.126 21.4305C161.442 22.1557 161.1 23.2021 161.1 24.5696V34.0801H156.749V16.8618H161.1V19.0063C161.68 18.2604 162.416 17.6802 163.307 17.2658C164.219 16.8307 165.213 16.6131 166.291 16.6131ZM182.363 20.436V28.7654C182.363 29.3456 182.498 29.7703 182.767 30.0397C183.057 30.2883 183.534 30.4126 184.197 30.4126H186.217V34.0801H183.482C179.814 34.0801 177.981 32.2982 177.981 28.7343V20.436H175.929V16.8618H177.981V12.6038H182.363V16.8618H186.217V20.436H182.363Z" fill="#333333"/>
</svg>
