<svg width="29" height="26" viewBox="0 0 29 26" fill="none" xmlns="http://www.w3.org/2000/svg">
<path opacity="0.6" d="M22.3734 0.483289C22.0878 0.451194 21.8007 0.435762 21.5134 0.436839C17.3267 0.436839 14.7734 4.18213 14.5534 4.5214C14.3267 4.18213 11.78 0.463449 7.59338 0.436839C7.30383 0.43558 7.01446 0.451011 6.72672 0.483289C1.01339 1.14854 -1.43328 8.14708 2.44006 12.398L13.7067 24.7849C13.813 24.903 13.943 24.9976 14.0883 25.0623C14.2336 25.127 14.3909 25.1604 14.55 25.1604C14.7091 25.1604 14.8665 25.127 15.0118 25.0623C15.1571 24.9976 15.2871 24.903 15.3934 24.7849L26.6734 12.398C30.5334 8.14708 28.0934 1.14189 22.3734 0.483289Z" fill="url(#paint0_linear_12_344)"/>
<defs>
<linearGradient id="paint0_linear_12_344" x1="0.560056" y1="12.7972" x2="28.5467" y2="12.7972" gradientUnits="userSpaceOnUse">
<stop stop-color="#94C9FF"/>
<stop offset="1" stop-color="#0C78EC"/>
</linearGradient>
</defs>
</svg>
