<svg width="29" height="25" viewBox="0 0 29 25" fill="none" xmlns="http://www.w3.org/2000/svg">
<path opacity="0.6" d="M22.3736 0.260137C22.0884 0.224665 21.801 0.209026 21.5136 0.213424C17.327 0.213424 14.7736 3.96685 14.5536 4.30685C14.327 3.96685 11.7803 0.240091 7.59364 0.213424C7.30402 0.208846 7.01442 0.224485 6.72696 0.260137C1.01363 0.926803 -1.43303 7.93341 2.4403 12.1934L13.707 24.6068C13.8133 24.7252 13.9433 24.8198 14.0886 24.8846C14.2339 24.9495 14.3912 24.983 14.5503 24.983C14.7094 24.983 14.8667 24.9495 15.012 24.8846C15.1573 24.8198 15.2873 24.7252 15.3936 24.6068L26.667 12.1934C30.5336 7.91341 28.0936 0.91347 22.3736 0.260137Z" fill="url(#paint0_linear_14_1564)"/>
<defs>
<linearGradient id="paint0_linear_14_1564" x1="0.5603" y1="12.6001" x2="28.547" y2="12.6001" gradientUnits="userSpaceOnUse">
<stop stop-color="#94C9FF"/>
<stop offset="1" stop-color="#0C78EC"/>
</linearGradient>
</defs>
</svg>
