<svg width="42" height="41" viewBox="0 0 42 41" fill="none" xmlns="http://www.w3.org/2000/svg">
<path opacity="0.6" d="M15.2734 30.7068H26.1134C26.2037 30.7023 26.294 30.7161 26.3788 30.7475C26.4636 30.7789 26.541 30.8273 26.6065 30.8895C26.672 30.9517 26.7241 31.0266 26.7597 31.1096C26.7952 31.1925 26.8135 31.2818 26.8134 31.372V34.8713C26.5995 34.7936 26.3744 34.7509 26.1468 34.7449H15.2601C15.0324 34.7496 14.807 34.7923 14.5934 34.8713V31.3454C14.5934 31.169 14.6637 30.9998 14.7887 30.875C14.9137 30.7503 15.0833 30.6801 15.2601 30.6801L15.2734 30.7068ZM26.1401 36.1352H15.2668C15.1501 36.132 15.0347 36.1593 14.932 36.2146C14.8293 36.2698 14.743 36.3511 14.6815 36.4501C14.6201 36.5491 14.5858 36.6623 14.5821 36.7786C14.5783 36.895 14.6052 37.0103 14.6601 37.1131C15.2256 38.228 16.0898 39.1647 17.1566 39.819C18.2234 40.4734 19.4512 40.8197 20.7034 40.8197C21.9557 40.8197 23.1834 40.4734 24.2502 39.819C25.3171 39.1647 26.1812 38.228 26.7468 37.1131C26.8016 37.0103 26.8285 36.895 26.8248 36.7786C26.821 36.6623 26.7867 36.5491 26.7253 36.4501C26.6639 36.3511 26.5775 36.2698 26.4748 36.2146C26.3721 36.1593 26.2567 36.132 26.1401 36.1352ZM26.1401 18.9983C26.1118 18.6885 25.9755 18.3984 25.7551 18.1784C25.5346 17.9585 25.2439 17.8224 24.9334 17.7942C24.736 17.7839 24.5386 17.8147 24.3537 17.8846C24.1689 17.9545 24.0006 18.0621 23.8595 18.2004C23.7185 18.3386 23.6078 18.5046 23.5344 18.6878C23.4611 18.871 23.4267 19.0673 23.4334 19.2645V20.4818H24.6401C24.8371 20.4883 25.0333 20.4543 25.2166 20.3821C25.3999 20.3098 25.5664 20.2009 25.7058 20.0618C25.8451 19.9227 25.9544 19.7565 26.0268 19.5736C26.0992 19.3907 26.1332 19.1949 26.1267 18.9983H26.1401ZM19.3601 22.8168V28.2321C19.3592 28.3785 19.3874 28.5237 19.4429 28.6592C19.4985 28.7948 19.5803 28.918 19.6838 29.0219C19.7873 29.1258 19.9103 29.2081 20.0458 29.2644C20.1813 29.3206 20.3267 29.3496 20.4734 29.3496H20.9468C21.2456 29.3496 21.5321 29.2311 21.7434 29.0203C21.9547 28.8094 22.0734 28.5236 22.0734 28.2254V22.6638C22.0734 22.4504 21.9884 22.2457 21.8372 22.0947C21.6859 21.9438 21.4807 21.8589 21.2668 21.8589H20.3401C20.211 21.8535 20.0822 21.8743 19.9614 21.9201C19.8406 21.9659 19.7305 22.0357 19.6376 22.1253C19.5447 22.2149 19.471 22.3225 19.421 22.4413C19.371 22.5602 19.3457 22.6879 19.3468 22.8168H19.3601ZM20.6934 5.52032C17.972 5.52844 15.3308 6.44043 13.1863 8.1123C11.0418 9.78417 9.516 12.1208 8.84967 14.7538C8.18334 17.3867 8.41435 20.1662 9.50627 22.6536C10.5982 25.1411 12.4889 27.195 14.8801 28.4914C14.9996 28.5541 15.0973 28.6515 15.1601 28.7708C15.2375 28.9356 15.3599 29.0754 15.5131 29.1742C15.6664 29.273 15.8443 29.3269 16.0268 29.3297H16.4134C16.8289 29.3297 17.2274 29.165 17.5212 28.8718C17.815 28.5786 17.9801 28.1809 17.9801 27.7663V23.0164C17.9783 22.7035 17.8525 22.4041 17.6302 22.1834C17.4078 21.9628 17.107 21.8389 16.7934 21.8389C16.4132 21.8462 16.0355 21.7768 15.6828 21.6349C15.3301 21.4931 15.0097 21.2817 14.7408 21.0134C14.4719 20.7451 14.2601 20.4253 14.1179 20.0733C13.9757 19.7214 13.9062 19.3444 13.9134 18.965C13.9503 18.3001 14.232 17.6723 14.7045 17.202C15.1771 16.7317 15.807 16.4523 16.4734 16.4172C16.8525 16.4118 17.2288 16.4824 17.5799 16.6251C17.9311 16.7678 18.2499 16.9795 18.5173 17.2476C18.7848 17.5158 18.9955 17.8349 19.1368 18.1859C19.2781 18.5369 19.3473 18.9127 19.3401 19.291V20.4618H22.0068V19.291C21.9986 18.9125 22.0671 18.5362 22.2081 18.1848C22.3492 17.8333 22.5598 17.5138 22.8274 17.2455C23.0951 16.9772 23.4143 16.7657 23.7658 16.6233C24.1174 16.481 24.4941 16.4109 24.8734 16.4172C25.5389 16.4551 26.1672 16.7356 26.6391 17.2052C27.111 17.6749 27.3937 18.3011 27.4334 18.965C27.4398 19.3447 27.3694 19.7218 27.2265 20.0738C27.0835 20.4258 26.871 20.7455 26.6016 21.0137C26.3322 21.2819 26.0114 21.4932 25.6584 21.6349C25.3053 21.7767 24.9273 21.8461 24.5468 21.8389H23.4401C23.3734 21.8389 23.3667 21.8389 23.3667 21.8389V28.691C23.3667 28.854 23.4312 29.0103 23.546 29.1262C23.6608 29.242 23.8168 29.3079 23.9801 29.3097H25.3134C25.5044 29.3033 25.6901 29.2456 25.8509 29.1426C26.0117 29.0395 26.1415 28.895 26.2268 28.7243C26.2872 28.6185 26.3777 28.5328 26.4868 28.4781C28.8814 27.1833 30.7755 25.1293 31.8698 22.6405C32.9642 20.1516 33.1963 17.3699 32.5296 14.7348C31.8629 12.0996 30.3354 9.76117 28.1883 8.08891C26.0413 6.41666 23.3971 5.50576 20.6734 5.50035L20.6934 5.52032ZM16.4734 17.7743C16.1641 17.8041 15.875 17.9406 15.6559 18.1604C15.4368 18.3803 15.3015 18.6695 15.2734 18.9783C15.2642 19.1754 15.2958 19.3723 15.3661 19.5567C15.4365 19.741 15.5441 19.9089 15.6823 20.0499C15.8205 20.191 15.9864 20.3021 16.1695 20.3764C16.3526 20.4507 16.5491 20.4866 16.7468 20.4818H17.9601V19.2645C17.9656 19.0694 17.9311 18.8751 17.8586 18.6938C17.7861 18.5125 17.6772 18.3478 17.5386 18.2101C17.3999 18.0724 17.2345 17.9644 17.0524 17.8929C16.8704 17.8214 16.6756 17.7877 16.4801 17.7942L16.4734 17.7743ZM20.6934 4.21646C20.8702 4.21646 21.0398 4.14632 21.1648 4.02156C21.2898 3.8968 21.3601 3.72764 21.3601 3.55121V0.843595C21.3601 0.66716 21.2898 0.498001 21.1648 0.373242C21.0398 0.248484 20.8702 0.178345 20.6934 0.178345C20.5166 0.178345 20.347 0.248484 20.222 0.373242C20.097 0.498001 20.0268 0.66716 20.0268 0.843595V3.56453C20.0267 3.65245 20.0442 3.73951 20.0781 3.82066C20.1121 3.9018 20.1618 3.97545 20.2244 4.03732C20.287 4.09918 20.3613 4.14802 20.4429 4.18105C20.5246 4.21409 20.612 4.23066 20.7001 4.22978L20.6934 4.21646ZM3.72009 19.8165H1.00675C0.829944 19.8165 0.660374 19.8867 0.53535 20.0114C0.410325 20.1362 0.340088 20.3054 0.340088 20.4818C0.340088 20.6582 0.410325 20.8276 0.53535 20.9523C0.660374 21.0771 0.829944 21.147 1.00675 21.147H3.72009C3.8969 21.147 4.06646 21.0771 4.19149 20.9523C4.31651 20.8276 4.38676 20.6582 4.38676 20.4818C4.38676 20.3054 4.31651 20.1362 4.19149 20.0114C4.06646 19.8867 3.8969 19.8165 3.72009 19.8165ZM40.3868 19.8165H37.6734C37.4966 19.8165 37.327 19.8867 37.202 20.0114C37.077 20.1362 37.0068 20.3054 37.0068 20.4818C37.0068 20.6582 37.077 20.8276 37.202 20.9523C37.327 21.0771 37.4966 21.147 37.6734 21.147H40.3934C40.5702 21.147 40.7398 21.0771 40.8648 20.9523C40.9898 20.8276 41.0601 20.6582 41.0601 20.4818C41.0601 20.3054 40.9898 20.1362 40.8648 20.0114C40.7398 19.8867 40.5702 19.8165 40.3934 19.8165H40.3868ZM8.21342 31.9907L6.29342 33.9067C6.22786 33.9688 6.17566 34.0435 6.13998 34.1264C6.10431 34.2093 6.08592 34.2986 6.08592 34.3889C6.08592 34.4791 6.10431 34.5684 6.13998 34.6513C6.17566 34.7343 6.22786 34.8091 6.29342 34.8713C6.35561 34.9356 6.43017 34.9868 6.51264 35.0218C6.59512 35.0568 6.6838 35.0748 6.77342 35.0748C6.86303 35.0748 6.95173 35.0568 7.0342 35.0218C7.11667 34.9868 7.19123 34.9356 7.25342 34.8713L9.17342 32.9486C9.30072 32.8216 9.37224 32.6493 9.37224 32.4696C9.37224 32.29 9.30072 32.1177 9.17342 31.9907C9.04612 31.8636 8.87346 31.7924 8.69342 31.7924C8.51338 31.7924 8.34072 31.8636 8.21342 31.9907ZM35.0334 5.20768L33.1134 7.12368C32.9861 7.25072 32.9146 7.42299 32.9146 7.60264C32.9146 7.7823 32.9861 7.95457 33.1134 8.0816C33.2407 8.20864 33.4134 8.27991 33.5934 8.27991C33.7735 8.27991 33.9461 8.20864 34.0734 8.0816L35.9934 6.1656C36.0564 6.1027 36.1065 6.02803 36.1406 5.94585C36.1747 5.86367 36.1922 5.77559 36.1922 5.68664C36.1922 5.59768 36.1747 5.50961 36.1406 5.42742C36.1065 5.34524 36.0564 5.27058 35.9934 5.20768C35.9304 5.14478 35.8555 5.0949 35.7732 5.06085C35.6908 5.02681 35.6026 5.00937 35.5134 5.00937C35.4243 5.00937 35.336 5.02681 35.2537 5.06085C35.1713 5.0949 35.0965 5.14478 35.0334 5.20768ZM7.79342 8.28121C7.88274 8.28173 7.97126 8.26433 8.05372 8.23005C8.13618 8.19577 8.21089 8.14526 8.27342 8.0816C8.33794 8.01955 8.38926 7.94513 8.42432 7.86283C8.45937 7.78053 8.47744 7.69207 8.47744 7.60264C8.47744 7.51322 8.45937 7.42459 8.42432 7.34229C8.38926 7.25999 8.33794 7.18574 8.27342 7.12368L6.34009 5.22765C6.21278 5.10062 6.04012 5.02918 5.86009 5.02918C5.68005 5.02918 5.50739 5.10062 5.38009 5.22765C5.25278 5.35469 5.18126 5.52696 5.18126 5.70661C5.18126 5.88627 5.25278 6.05854 5.38009 6.18558L7.30009 8.10158C7.36262 8.16524 7.43733 8.21574 7.51978 8.25003C7.60224 8.28431 7.69076 8.30171 7.78009 8.30119L7.79342 8.28121ZM33.1801 31.9907C33.1178 31.9252 33.0428 31.8731 32.9597 31.8375C32.8767 31.8019 32.7872 31.7836 32.6968 31.7836C32.6063 31.7836 32.5168 31.8019 32.4338 31.8375C32.3507 31.8731 32.2757 31.9252 32.2134 31.9907C32.1489 32.0527 32.0976 32.1271 32.0625 32.2094C32.0275 32.2917 32.0094 32.3802 32.0094 32.4696C32.0094 32.559 32.0275 32.6475 32.0625 32.7298C32.0976 32.8121 32.1489 32.8865 32.2134 32.9486L34.1334 34.8646C34.1959 34.9282 34.2707 34.9788 34.3531 35.013C34.4356 35.0473 34.5241 35.0647 34.6134 35.0642C34.7027 35.0647 34.7913 35.0473 34.8737 35.013C34.9562 34.9788 35.0309 34.9282 35.0934 34.8646C35.1579 34.8025 35.2093 34.7281 35.2443 34.6458C35.2794 34.5635 35.2974 34.4751 35.2974 34.3856C35.2974 34.2962 35.2794 34.2076 35.2443 34.1253C35.2093 34.043 35.1579 33.9687 35.0934 33.9067L33.1801 31.9907Z" fill="url(#paint0_linear_12_343)"/>
<defs>
<linearGradient id="paint0_linear_12_343" x1="0.333421" y1="20.4951" x2="41.0668" y2="20.4951" gradientUnits="userSpaceOnUse">
<stop stop-color="#94C9FF"/>
<stop offset="1" stop-color="#0C78EC"/>
</linearGradient>
</defs>
</svg>
