<svg width="882" height="68" viewBox="0 0 882 68" fill="none" xmlns="http://www.w3.org/2000/svg">
<path d="M33.3333 67.0334C51.7428 67.0334 66.6667 52.1095 66.6667 33.7C66.6667 15.2905 51.7428 0.366699 33.3333 0.366699C14.9238 0.366699 0 15.2905 0 33.7C0 52.1095 14.9238 67.0334 33.3333 67.0334Z" fill="url(#paint0_linear_91_16)"/>
<path d="M29.5309 29.1134V25.5874H36.1182V45.5134H32.1822V29.1134H29.5309Z" fill="white"/>
<path d="M92.2471 33.7H245.694" stroke="#193E8D" stroke-width="1.33333" stroke-miterlimit="10" stroke-linecap="round" stroke-dasharray="8 8"/>
<path d="M364.527 33.9H517.974" stroke="#193E8D" stroke-width="1.33333" stroke-miterlimit="10" stroke-linecap="round" stroke-dasharray="8 8"/>
<path d="M635.953 33.8534H789.4" stroke="#193E8D" stroke-width="1.33333" stroke-miterlimit="10" stroke-linecap="round" stroke-dasharray="8 8"/>
<path d="M305.027 66.6667C323.436 66.6667 338.36 51.7428 338.36 33.3333C338.36 14.9238 323.436 0 305.027 0C286.617 0 271.693 14.9238 271.693 33.3333C271.693 51.7428 286.617 66.6667 305.027 66.6667Z" fill="url(#paint1_linear_91_16)"/>
<path d="M299.665 40.528C301.414 39.0702 302.808 37.8585 303.847 36.8927C304.886 35.9087 305.751 34.8882 306.444 33.8313C307.136 32.7745 307.482 31.7358 307.482 30.7153C307.482 29.786 307.264 29.0571 306.826 28.5287C306.389 28.0002 305.715 27.736 304.804 27.736C303.893 27.736 303.191 28.0458 302.699 28.6653C302.207 29.2667 301.952 30.0958 301.934 31.1527H298.216C298.289 28.966 298.936 27.3078 300.157 26.178C301.396 25.0482 302.963 24.4833 304.858 24.4833C306.936 24.4833 308.53 25.0391 309.642 26.1507C310.753 27.244 311.309 28.6927 311.309 30.4967C311.309 31.918 310.926 33.2756 310.161 34.5693C309.396 35.8631 308.521 36.9929 307.537 37.9587C306.553 38.9062 305.268 40.0542 303.683 41.4027H311.746V44.5733H298.244V41.7307L299.665 40.528Z" fill="white"/>
<path d="M577.027 66.6667C595.436 66.6667 610.36 51.7428 610.36 33.3333C610.36 14.9238 595.436 0 577.027 0C558.617 0 543.693 14.9238 543.693 33.3333C543.693 51.7428 558.617 66.6667 577.027 66.6667Z" fill="url(#paint2_linear_91_16)"/>
<path d="M569.643 29.5021C569.735 27.6798 570.372 26.2767 571.557 25.2927C572.759 24.2905 574.336 23.7894 576.285 23.7894C577.616 23.7894 578.755 24.0263 579.702 24.5001C580.65 24.9556 581.36 25.5843 581.834 26.3861C582.326 27.1696 582.572 28.0625 582.572 29.0647C582.572 30.2127 582.271 31.1876 581.67 31.9894C581.087 32.7729 580.385 33.3014 579.565 33.5747V33.6841C580.622 34.0121 581.442 34.5952 582.025 35.4334C582.627 36.2716 582.927 37.3467 582.927 38.6587C582.927 39.7521 582.672 40.7269 582.162 41.5834C581.67 42.4398 580.932 43.1141 579.948 43.6061C578.982 44.0798 577.816 44.3167 576.449 44.3167C574.39 44.3167 572.714 43.7974 571.42 42.7587C570.126 41.7201 569.443 40.1894 569.37 38.1667H573.087C573.124 39.0596 573.425 39.7794 573.989 40.3261C574.573 40.8545 575.365 41.1187 576.367 41.1187C577.297 41.1187 578.007 40.8636 578.499 40.3534C579.01 39.8249 579.265 39.1507 579.265 38.3307C579.265 37.2374 578.919 36.4538 578.226 35.9801C577.534 35.5063 576.459 35.2694 575.001 35.2694H574.208V32.1261H575.001C577.588 32.1261 578.882 31.2605 578.882 29.5294C578.882 28.7458 578.645 28.1354 578.171 27.6981C577.716 27.2607 577.051 27.0421 576.176 27.0421C575.32 27.0421 574.655 27.2789 574.181 27.7527C573.725 28.2083 573.461 28.7914 573.388 29.5021H569.643Z" fill="white"/>
<path d="M848.36 66.6667C866.77 66.6667 881.694 51.7428 881.694 33.3333C881.694 14.9238 866.77 0 848.36 0C829.951 0 815.027 14.9238 815.027 33.3333C815.027 51.7428 829.951 66.6667 848.36 66.6667Z" fill="url(#paint3_linear_91_16)"/>
<path d="M840.558 40.2987V37.2921L849.496 24.5001H853.951V36.9641H856.357V40.2987H853.951V44.1801H850.125V40.2987H840.558ZM850.371 28.6001L844.767 36.9641H850.371V28.6001Z" fill="white"/>
<defs>
<linearGradient id="paint0_linear_91_16" x1="-93.26" y1="-5.6933" x2="71.5067" y2="45.58" gradientUnits="userSpaceOnUse">
<stop stop-color="#94C9FF"/>
<stop offset="0.39" stop-color="#92C8FF"/>
<stop offset="0.53" stop-color="#8BC4FE"/>
<stop offset="0.63" stop-color="#80BDFC"/>
<stop offset="0.72" stop-color="#6FB3FA"/>
<stop offset="0.79" stop-color="#59A6F7"/>
<stop offset="0.85" stop-color="#3D95F3"/>
<stop offset="0.9" stop-color="#1E83EF"/>
<stop offset="0.93" stop-color="#0C78EC"/>
</linearGradient>
<linearGradient id="paint1_linear_91_16" x1="178.433" y1="-6.06" x2="343.2" y2="45.2067" gradientUnits="userSpaceOnUse">
<stop stop-color="#94C9FF"/>
<stop offset="0.27" stop-color="#92C8FF"/>
<stop offset="0.42" stop-color="#89C3FE"/>
<stop offset="0.55" stop-color="#7BBAFC"/>
<stop offset="0.66" stop-color="#67AEF9"/>
<stop offset="0.76" stop-color="#4E9FF5"/>
<stop offset="0.85" stop-color="#2E8CF1"/>
<stop offset="0.93" stop-color="#0C78EC"/>
</linearGradient>
<linearGradient id="paint2_linear_91_16" x1="450.433" y1="-6.06" x2="615.2" y2="45.2067" gradientUnits="userSpaceOnUse">
<stop stop-color="#94C9FF"/>
<stop offset="0.16" stop-color="#90C7FE"/>
<stop offset="0.32" stop-color="#84BFFD"/>
<stop offset="0.48" stop-color="#6FB3FA"/>
<stop offset="0.64" stop-color="#53A2F6"/>
<stop offset="0.8" stop-color="#2E8DF1"/>
<stop offset="0.93" stop-color="#0C78EC"/>
</linearGradient>
<linearGradient id="paint3_linear_91_16" x1="721.767" y1="-6.06" x2="886.534" y2="45.2067" gradientUnits="userSpaceOnUse">
<stop stop-color="#94C9FF"/>
<stop offset="0.13" stop-color="#8BC3FE"/>
<stop offset="0.33" stop-color="#71B4FA"/>
<stop offset="0.6" stop-color="#489CF4"/>
<stop offset="0.91" stop-color="#107AED"/>
<stop offset="0.93" stop-color="#0C78EC"/>
</linearGradient>
</defs>
</svg>
