<svg width="67" height="67" viewBox="0 0 67 67" fill="none" xmlns="http://www.w3.org/2000/svg">
<path d="M33.3333 66.6667C51.7428 66.6667 66.6667 51.7428 66.6667 33.3333C66.6667 14.9238 51.7428 0 33.3333 0C14.9238 0 0 14.9238 0 33.3333C0 51.7428 14.9238 66.6667 33.3333 66.6667Z" fill="url(#paint0_linear_3_12)"/>
<path d="M25.9501 29.5021C26.0412 27.6798 26.679 26.2767 27.8634 25.2927C29.0661 24.2905 30.6423 23.7894 32.5921 23.7894C33.9223 23.7894 35.0612 24.0263 36.0088 24.5001C36.9563 24.9556 37.667 25.5843 38.1408 26.3861C38.6328 27.1696 38.8788 28.0625 38.8788 29.0647C38.8788 30.2127 38.5781 31.1876 37.9768 31.9894C37.3937 32.7729 36.6921 33.3014 35.8721 33.5747V33.6841C36.929 34.0121 37.749 34.5952 38.3321 35.4334C38.9334 36.2716 39.2341 37.3467 39.2341 38.6587C39.2341 39.7521 38.979 40.7269 38.4688 41.5834C37.9768 42.4398 37.2388 43.1141 36.2548 43.6061C35.289 44.0798 34.1228 44.3167 32.7561 44.3167C30.697 44.3167 29.0206 43.7974 27.7268 42.7587C26.433 41.7201 25.7497 40.1894 25.6768 38.1667H29.3941C29.4306 39.0596 29.7312 39.7794 30.2961 40.3261C30.8792 40.8545 31.6719 41.1187 32.6741 41.1187C33.6034 41.1187 34.3141 40.8636 34.8061 40.3534C35.3163 39.8249 35.5714 39.1507 35.5714 38.3307C35.5714 37.2374 35.2252 36.4538 34.5328 35.9801C33.8403 35.5063 32.7652 35.2694 31.3074 35.2694H30.5148V32.1261H31.3074C33.895 32.1261 35.1888 31.2605 35.1888 29.5294C35.1888 28.7458 34.9519 28.1354 34.4781 27.6981C34.0226 27.2607 33.3574 27.0421 32.4828 27.0421C31.6263 27.0421 30.9612 27.2789 30.4874 27.7527C30.0319 28.2083 29.7677 28.7914 29.6948 29.5021H25.9501Z" fill="white"/>
<defs>
<linearGradient id="paint0_linear_3_12" x1="-93.26" y1="-6.06" x2="71.5067" y2="45.2067" gradientUnits="userSpaceOnUse">
<stop stop-color="#94C9FF"/>
<stop offset="0.16" stop-color="#90C7FE"/>
<stop offset="0.32" stop-color="#84BFFD"/>
<stop offset="0.48" stop-color="#6FB3FA"/>
<stop offset="0.64" stop-color="#53A2F6"/>
<stop offset="0.8" stop-color="#2E8DF1"/>
<stop offset="0.93" stop-color="#0C78EC"/>
</linearGradient>
</defs>
</svg>
