<svg width="34" height="27" viewBox="0 0 34 27" fill="none" xmlns="http://www.w3.org/2000/svg">
<g opacity="0.6">
<path fill-rule="evenodd" clip-rule="evenodd" d="M18.2535 0.49353C23.8135 0.49353 28.7735 2.31353 32.0602 5.1602C32.4655 5.5127 32.7738 5.96307 32.9558 6.46847C33.1378 6.97386 33.1874 7.51743 33.0998 8.0474C33.0123 8.57738 32.7905 9.07612 32.4556 9.49613C32.1208 9.91615 31.684 10.2435 31.1868 10.4469L25.9202 12.5869C25.4102 12.7945 24.9636 13.1323 24.6251 13.5666C24.2865 14.0009 24.0679 14.5163 23.9909 15.0616C23.914 15.6068 23.9815 16.1627 24.1867 16.6737C24.3919 17.1847 24.7275 17.6329 25.1602 17.9735L27.0668 19.4668C27.508 19.8147 27.8481 20.2744 28.0516 20.7981C28.2552 21.3217 28.3148 21.8902 28.2243 22.4447C28.1338 22.9992 27.8965 23.5194 27.537 23.9512C27.1776 24.383 26.7091 24.7107 26.1802 24.9003C23.6326 25.7907 20.9522 26.2415 18.2535 26.2336C8.3335 26.2203 0.333496 20.4936 0.333496 13.3602C0.333496 6.2269 8.3335 0.49353 18.2535 0.49353ZM23.8602 4.82686C24.3351 4.82554 24.7998 4.96516 25.1953 5.22807C25.5909 5.49098 25.8995 5.86541 26.0822 6.30383C26.2649 6.74226 26.3134 7.22497 26.2215 7.69096C26.1297 8.15695 25.9016 8.5852 25.5662 8.92151C25.2309 9.25782 24.8032 9.48714 24.3375 9.58028C23.8718 9.67343 23.3889 9.62624 22.9499 9.44478C22.511 9.26333 22.1358 8.95573 21.8718 8.56091C21.6078 8.16609 21.4668 7.70181 21.4668 7.22685C21.466 6.91199 21.5272 6.6001 21.6471 6.30896C21.767 6.01782 21.9431 5.75318 22.1655 5.53023C22.3878 5.30728 22.6519 5.13034 22.9427 5.00964C23.2335 4.88895 23.5453 4.82686 23.8602 4.82686ZM19.0002 18.8602C19.4735 18.8602 19.9363 19.0006 20.3298 19.2635C20.7234 19.5265 21.0302 19.9003 21.2113 20.3376C21.3925 20.7749 21.4399 21.2562 21.3475 21.7204C21.2552 22.1847 21.0272 22.6111 20.6925 22.9458C20.3578 23.2806 19.9313 23.5086 19.4671 23.601C19.0028 23.6933 18.5216 23.6459 18.0843 23.4647C17.6469 23.2836 17.2732 22.9768 17.0102 22.5832C16.7472 22.1896 16.6068 21.7268 16.6068 21.2535C16.606 20.9389 16.6672 20.6274 16.7872 20.3366C16.9072 20.0459 17.0835 19.7817 17.3059 19.5593C17.5283 19.3369 17.7925 19.1605 18.0832 19.0406C18.374 18.9206 18.6856 18.8594 19.0002 18.8602ZM10.8268 15.7668C11.3018 15.7655 11.7665 15.9053 12.162 16.1682C12.5576 16.4311 12.8662 16.8054 13.0489 17.2439C13.2316 17.6823 13.28 18.1649 13.1882 18.6309C13.0963 19.0969 12.8683 19.5252 12.5329 19.8615C12.1975 20.1978 11.7699 20.4271 11.3042 20.5202C10.8384 20.6134 10.3555 20.5663 9.9166 20.3848C9.47767 20.2034 9.10245 19.8957 8.83844 19.5009C8.57443 19.106 8.43349 18.6418 8.43349 18.1669C8.43261 17.852 8.49389 17.54 8.61377 17.2489C8.73365 16.9578 8.90979 16.6932 9.13212 16.4703C9.35445 16.2473 9.6186 16.0704 9.9094 15.9497C10.2002 15.8291 10.512 15.7668 10.8268 15.7668ZM6.82682 9.02022C7.30018 9.02022 7.76291 9.16056 8.15649 9.42354C8.55008 9.68653 8.85684 10.0604 9.03798 10.4977C9.21913 10.935 9.26652 11.4162 9.17417 11.8804C9.08183 12.3447 8.85388 12.7711 8.51916 13.1058C8.18445 13.4405 7.758 13.6685 7.29374 13.7609C6.82948 13.8532 6.34827 13.8059 5.91095 13.6247C5.47362 13.4436 5.09984 13.1368 4.83685 12.7432C4.57387 12.3496 4.43349 11.8869 4.43349 11.4135C4.43347 10.7822 4.68288 10.1765 5.1274 9.72823C5.57192 9.27996 6.17554 9.0255 6.80682 9.02022H6.82682ZM14.1202 5.20683C14.5935 5.20683 15.0562 5.34725 15.4498 5.61023C15.8434 5.87321 16.1502 6.24696 16.3313 6.68429C16.5125 7.12161 16.5599 7.60284 16.4675 8.0671C16.3752 8.53136 16.1472 8.95781 15.8125 9.29252C15.4778 9.62724 15.0513 9.8552 14.5871 9.94755C14.1228 10.0399 13.6416 9.99247 13.2043 9.81132C12.7669 9.63017 12.3932 9.32347 12.1302 8.92989C11.8672 8.53631 11.7268 8.07358 11.7268 7.60022C11.7285 6.96945 11.9785 6.36468 12.4227 5.91679C12.8668 5.4689 13.4694 5.21383 14.1002 5.20683H14.1202Z" fill="url(#paint0_linear_14_1846)"/>
</g>
<defs>
<linearGradient id="paint0_linear_14_1846" x1="0.340163" y1="13.3602" x2="33.1468" y2="13.3602" gradientUnits="userSpaceOnUse">
<stop stop-color="#94C9FF"/>
<stop offset="1" stop-color="#0C78EC"/>
</linearGradient>
</defs>
</svg>
