<svg width="42" height="24" viewBox="0 0 42 24" fill="none" xmlns="http://www.w3.org/2000/svg">
<path opacity="0.6" d="M20.6467 20.8733V22.1399C20.6467 22.5165 20.497 22.8776 20.2307 23.1439C19.9644 23.4102 19.6033 23.5598 19.2267 23.5598H2.22001C2.03384 23.5598 1.8495 23.5231 1.67759 23.4517C1.50568 23.3803 1.34958 23.2755 1.21826 23.1436C1.08693 23.0117 0.982962 22.8551 0.912329 22.6828C0.841695 22.5106 0.805778 22.326 0.806656 22.1399V20.8998C0.806656 19.9 1.00358 18.9101 1.38619 17.9864C1.76879 17.0627 2.32959 16.2234 3.03656 15.5165C3.74352 14.8095 4.58281 14.2487 5.50651 13.8661C6.4302 13.4835 7.4202 13.2865 8.42 13.2865H13.0267C15.0424 13.2847 16.9765 14.0824 18.405 15.5046C19.8335 16.9268 20.6396 18.8575 20.6467 20.8733Z" fill="url(#paint0_linear_14_1627)"/>
<path opacity="0.6" d="M10.7268 12.2C14.0037 12.2 16.6601 9.54361 16.6601 6.26672C16.6601 2.98983 14.0037 0.333374 10.7268 0.333374C7.4499 0.333374 4.79346 2.98983 4.79346 6.26672C4.79346 9.54361 7.4499 12.2 10.7268 12.2Z" fill="url(#paint1_linear_14_1627)"/>
<path opacity="0.6" d="M21.707 20.8733V22.1399C21.707 22.5165 21.8566 22.8776 22.1229 23.1439C22.3892 23.4102 22.7504 23.5598 23.127 23.5598H40.107C40.4836 23.5598 40.8448 23.4102 41.1111 23.1439C41.3774 22.8776 41.527 22.5165 41.527 22.1399V20.8998C41.527 19.8994 41.3299 18.9089 40.9469 17.9847C40.5638 17.0606 40.0024 16.2211 39.2948 15.514C38.5871 14.807 37.747 14.2464 36.8226 13.8641C35.8981 13.4819 34.9074 13.2856 33.907 13.2865H29.307C27.2948 13.29 25.3657 14.09 23.9416 15.5116C22.5175 16.9332 21.7141 18.861 21.707 20.8733Z" fill="url(#paint2_linear_14_1627)"/>
<path opacity="0.6" d="M31.6267 12.2C34.9036 12.2 37.56 9.54361 37.56 6.26672C37.56 2.98983 34.9036 0.333374 31.6267 0.333374C28.3498 0.333374 25.6934 2.98983 25.6934 6.26672C25.6934 9.54361 28.3498 12.2 31.6267 12.2Z" fill="url(#paint3_linear_14_1627)"/>
<defs>
<linearGradient id="paint0_linear_14_1627" x1="0.806656" y1="18.3931" x2="20.6467" y2="18.3931" gradientUnits="userSpaceOnUse">
<stop stop-color="#94C9FF"/>
<stop offset="1" stop-color="#0C78EC"/>
</linearGradient>
<linearGradient id="paint1_linear_14_1627" x1="4.79346" y1="6.26668" x2="16.6601" y2="6.26668" gradientUnits="userSpaceOnUse">
<stop stop-color="#94C9FF"/>
<stop offset="1" stop-color="#0C78EC"/>
</linearGradient>
<linearGradient id="paint2_linear_14_1627" x1="21.707" y1="18.3931" x2="41.547" y2="18.3931" gradientUnits="userSpaceOnUse">
<stop stop-color="#94C9FF"/>
<stop offset="1" stop-color="#0C78EC"/>
</linearGradient>
<linearGradient id="paint3_linear_14_1627" x1="25.6934" y1="6.26668" x2="37.56" y2="6.26668" gradientUnits="userSpaceOnUse">
<stop stop-color="#94C9FF"/>
<stop offset="1" stop-color="#0C78EC"/>
</linearGradient>
</defs>
</svg>
